<?xml version="1.0" encoding="utf-8"?>
<!-- Generator: Adobe Illustrator 21.1.0, SVG Export Plug-In . SVG Version: 6.00 Build 0)  -->
<svg version="1.1" id="Capa_1" xmlns="http://www.w3.org/2000/svg" xmlns:xlink="http://www.w3.org/1999/xlink" x="0px" y="0px"
	 viewBox="0 0 160 160" style="enable-background:new 0 0 160 160;" xml:space="preserve">
<style type="text/css">
	.st0{fill:#FFFFFF;}
	.st1{fill:#262424;}
	.st2{fill:#00ABEB;}
	.st3{fill:#0C0D03;}
</style>
<path class="st0" d="M80,160L80,160c-44.2,0-80-35.8-80-80v0C0,35.8,35.8,0,80,0h0c44.2,0,80,35.8,80,80v0
	C160,124.2,124.2,160,80,160z"/>
<title>torre2</title>
<g id="Capa_2">
	<g id="Capa_1-2">
		<polygon class="st0" points="60.9,52.3 99.5,52.1 104.6,65.5 55.7,65.4 		"/>
		<path class="st1" d="M104.7,65.5L104.7,65.5l-49.1-0.1v-0.1l5.3-13.2l0,0L99.5,52l0,0L104.7,65.5z M55.7,65.4l48.8,0.1l-5.1-13.2
			H61L55.7,65.4z"/>
		<polygon class="st2" points="99.3,51.7 85.2,16.4 74.2,16.5 60.3,51.8 		"/>
		<polygon class="st2" points="116.9,127.2 129.7,127.2 104.7,65.2 68.7,65.2 		"/>
		<polygon class="st2" points="43.8,127.4 92.4,65.2 55.4,65.3 31.1,127.5 		"/>
		<path class="st3" d="M49,127.8l5.1,0.1c0.1-0.8,0.5-1.3,1.2-1.4l5.2-0.1v-0.6c-0.4,0.1-1.1-0.2-1.1-0.6v-7.9
			c0.1-0.9,0.8-1.6,1.6-1.8v-1.7c0.1-0.9,1.4-1.4,2.5-1.4c0.5-1.7,2.3-2.1,3.9-2.7c-0.1-0.9,0.3-1.9,1.3-1.8l-0.1-0.5
			c0.1-0.2,0.2-0.3,0.4-0.3h0.4v-4c-0.1-0.4,0.3-0.9,0.7-0.9h0.1l1.7,0.1c0.4,0,0.7,0.2,0.9,0.5v6.2c0.9-0.1,1.7-0.2,2.6-0.2
			l-0.1-19.2h0.4v5.2c1.3,0.2,2.1,1.4,2,2.7l0.1,0.1c1.5,0.3,1.6,1.3,1.6,2.8c1.2,0.1,1.5,1.2,1.5,2.3c0.8,0,1.5,0.7,1.6,1.5
			l-0.1,3.2h1.3v-2.8h0.4v-5.1h0.3l0.1,5.2l0.5-0.1c1.8,0,2.9,1.6,3.4,3.6l0.4-0.1l0-5.1c0-0.4,0.3-0.7,0.6-0.7l3.1-0.1
			c0.3,0.1,0.5,0.3,0.5,0.6v0.8c0.6,0,0.8,0.2,0.9,0.3v5.4H96V106c1.2-0.1,2.3,0.8,2.6,2l-0.1,6c2.6,0.3,6.7,1.3,6.6,1.8l0.8,5.1
			l0.1,2.8v0.9l0.3,0.2l-0.1,1.8H105c0,0.5-0.8,1.1-1.4,1.3h3.1l0.1,0.5H85.1l-13.3-0.1H49V127.8z"/>
		<path class="st0" d="M56.9,127.3h8c0.2,0,0.4,0.3,0.3,0.6h-8.7C56.6,127.6,56.7,127.3,56.9,127.3z"/>
		<path class="st0" d="M59.9,117.5c0.1-0.6,0.4-1.4,1.1-1.4v1.2c0,0.5-0.5,0.4-0.6,1.2v6.8c-0.2,0-0.4,0-0.5-0.1V117.5z"/>
		<path class="st0" d="M61.6,118.6c-0.1-0.6,0.6-0.7,0.6-1v-3.3c0-0.4,0.3-0.7,0.6-0.7c0,0,0,0,0.1,0h1.6v6.2h4.3
			c0.3,0,0.3,0.1,0.3,0.4v3.4c-0.7-0.1-1.3,0-2,0.1c-0.4,0.1-0.7,0.4-0.7,0.8c-0.6-0.1-1.1,0.2-1.2,0.8c-0.1,0.6,0.2,1.1,0.8,1.2
			h-4.4v-0.6c0.8,0,1.8,0,1.9-0.9v-2.7l0.3-0.2L64,122c0.1-0.1,0.1-0.2,0.3-0.2c0.1-0.6,0.1-1.1,0-1.7c-0.5-0.2-0.2-1.2-1-1.4v-1
			c0-0.8,0.1-1.3,0.7-1.6v-0.2c-0.7,0.3-1.1,1-1,1.8v1.1c-0.7,0-0.3,0.9-0.9,0.9v1.6c0.2,0,0.4,0,0.6,0v1l0.3,0.1c0,0.9,0,1.8,0,2.6
			c0,0.4-0.8,0.4-1.3,0.4L61.6,118.6z"/>
		<polygon class="st0" points="63.5,120.2 63.9,120.4 63.9,121.5 63.5,121.6 		"/>
		<path class="st0" d="M83.7,111v7.4l-2.5,1l-0.3,0.3l-0.1,0.3l-0.3,0.8l-0.1,0.8l0.1,1.1l0.3,0.6l0.4,0.6l0.3,0.3l0.2,0.1H82v1.3
			l0.8,0.1v0.7l0.9,0.1c0.3,1.1,0.9,1.4,1.5,1.5h-6.5c0-0.1,0-0.3,0-0.4c0.2-0.1,0.3-0.2,0.3-0.4v-3l0.2-0.1l0.1-0.2l-0.1-0.2
			l-0.2-0.1v-3c0-0.2,0-0.3-0.3-0.4H78v-0.6h-0.3v-0.5h0.2v-0.6h-1v0.3H76v-0.3h-1v0.6h0.3v0.5H75v0.7h-0.5
			c-0.4,0.1-0.4,0.2-0.4,0.5v2.9l-0.3,0.1l-0.1,0.2l0.1,0.2l0.3,0.1v3c0,0.2,0.2,0.4,0.3,0.4v0.4h-1.7c0-0.7-0.4-1.4-1.1-1.6h-1.1
			v-0.2l2-1.9l-0.1-0.2l-0.3,0.3h-1.9v-4.7c0-0.5-0.6-0.9-1-0.8h-3.8v-2H69c0.6,0,1.1-0.5,1.2-1.1v-2.2c0-0.6-0.4-1-1-1h-4.9
			c0.5-1.4,2.7-1.9,3.7-2C73.2,109.7,78.5,109.8,83.7,111L83.7,111z M88.7,112.2l0.5-0.5h0.7v4.3l-1.2,0.6V112.2z M85.3,111.6v6.2
			l2.3-0.9v-4.2l-0.8-0.6L85.3,111.6L85.3,111.6z M93.4,116.4l-11.6,3.8v1.4l9.4-3l0.6,0.2l0.3,0.3l0.2,0.3l0.1,0.3h1.2v-2.9
			l-0.1-0.1L93.4,116.4z"/>
		<path class="st0" d="M65.9,124.7v1.4c-0.4-0.1-0.6-0.6-0.4-0.9C65.5,124.9,65.7,124.7,65.9,124.7z"/>
		<path class="st0" d="M65.4,113.5h3.2c0.3,0.1,0.4,0.1,0.5,0.4v1.4c-0.1,0.3-0.2,0.4-0.6,0.4h-3.1
			C65.4,115.7,65.4,113.5,65.4,113.5z"/>
		<path class="st0" d="M66.8,124.6c-0.4-0.7,3.5-0.7,3.2,0v1.5l-0.1,0.1l-0.1,0.1h-3L66.8,124.6z"/>
		<path class="st0" d="M68.7,108.2v1.6h-1C67.6,109,67.7,108.2,68.7,108.2z"/>
		<polygon class="st0" points="68.9,108.3 69.5,108.3 69.5,109.9 68.9,109.9 		"/>
		<path class="st0" d="M69.2,107.3h0.2v0.6h-0.5C68.9,107.5,68.8,107.3,69.2,107.3z"/>
		<polygon class="st0" points="70.5,124.3 71.9,124.3 70.5,125.4 		"/>
		<path class="st0" d="M71.3,108.2h1.1v1.3h-1.1C70.8,109.5,70.7,108.4,71.3,108.2z"/>
		<path class="st0" d="M71.3,103.1h1v1.5h-1C70.7,104.6,70.4,103.4,71.3,103.1z"/>
		<path class="st0" d="M74.6,123.5l0.3-0.1v-2.9c0-0.1,0.1-0.2,0.2-0.2l0,0h3.4c0.2,0,0.2,0.1,0.2,0.2v2.8l0.2,0.1l0.1,0.1l-0.1,0.2
			l-0.2,0.1v2.6c0,0.2-0.1,0.3-0.3,0.3v1h-3.3v-0.4h3.1v-0.5h-3.3v-2.9l-0.3-0.1l-0.1-0.1L74.6,123.5z"/>
		<polygon class="st1" points="78.4,123.5 78.4,123.8 75,123.9 75,123.5 		"/>
		<polygon class="st0" points="76.2,118.5 77.4,118.5 77.4,119.8 76.2,119.8 		"/>
		<polygon class="st0" points="78.8,103 79.4,103 79.4,107.2 78.8,107.3 		"/>
		<polygon class="st0" points="84.1,115.4 85.2,115.4 85.2,115.7 84.1,115.7 		"/>
		<polygon class="st0" points="84.1,117.9 85.2,117.9 84.2,118.1 		"/>
		<polygon class="st0" points="84.1,115.9 85.2,115.9 85.2,116.2 84.1,116.1 		"/>
		<polygon class="st0" points="84.1,116.4 85.2,116.4 85.2,116.7 84.1,116.7 		"/>
		<path class="st0" d="M87.6,126.4h0.3c0,0.6,0.4,1.1,1,1.2l-2.5-0.1C87,127.5,87.5,127,87.6,126.4z"/>
		<polygon class="st0" points="87.2,121.8 93.7,119.8 93.7,120.5 87.3,122.3 		"/>
		<polygon class="st0" points="94,121.5 94.2,122.1 89.3,123.4 89.1,122.8 		"/>
		<path class="st0" d="M89.3,103.2c0-0.4,0.3-0.5,0.6-0.5h2.3c0.3,0,0.3,0.1,0.3,0.4v0.4h-0.8c-0.3,0-0.4,0.1-0.4,0.5v4.7h-1.9
			L89.3,103.2z"/>
		<path class="st0" d="M91.2,126.3h4.5c0.2,0.8,0.9,1.3,1.7,1.4h-7.8C90.3,127.7,91.1,127.1,91.2,126.3z"/>
		<polygon class="st0" points="90.3,124.1 95.5,122.7 95.6,123.2 90.6,124.5 		"/>
		<path class="st1" d="M91.5,108"/>
		<path class="st1" d="M92.8,108L92.8,108z"/>
		<polygon class="st0" points="93.8,109.9 95.9,109.9 95.9,111.4 93.8,111.4 		"/>
		<path class="st0" d="M93.8,111.8h2.1v2.2c-0.7,0.1-1.4,0.3-2.1,0.6V111.8z"/>
		<path class="st1" d="M94.3,116.4L94.3,116.4z"/>
		<path class="st1" d="M94.5,116.4L94.5,116.4z"/>
		<path class="st0" d="M94.7,116.4c0-0.4,0.3-0.5,0.7-0.6h0.9v5.1c0,0.2-0.2,0.1-0.4,0.1h-1.1L94.7,116.4z"/>
		<path class="st1" d="M95.8,112"/>
		<path class="st0" d="M97,115.8h2.9c0.6,0,0.6,0.3,0.6,0.7v3.2c0.1,0.2-0.1,0.5-0.3,0.5c0,0,0,0-0.1,0H97V115.8z"/>
		<path class="st0" d="M99.9,126.4h1.1c0,0.8,0.9,1.2,1.7,1.3h-4.1C99.1,127.6,99.7,127.1,99.9,126.4z"/>
		<path class="st0" d="M101.2,124.6h4.5c0.2,0,0.3,0.2,0.3,0.4v0.1v0.8h-5.1c0-0.3,0-0.7,0-1C101,124.8,101.1,124.7,101.2,124.6z"/>
		<polygon class="st0" points="102.2,123.6 102.2,124.3 101.1,124.3 101.1,123.6 		"/>
		<path class="st0" d="M101.8,120.5v-4.2c0.1-0.2,0.2-0.2,0.5-0.2h2.4l0.5,4.3h-0.3c0-1.4-2.2-1.3-2.5,0L101.8,120.5z"/>
		<path class="st0" d="M104.6,120.5h-1.9C102.6,119.5,104.7,119.3,104.6,120.5z"/>
		<polygon class="st0" points="104.6,123.6 104.6,123.6 105.7,123.6 105.7,124.2 104.6,124.2 		"/>
		<rect x="84.1" y="117.5" class="st0" width="1.1" height="0.3"/>
		<rect x="84.1" y="116.9" class="st0" width="1.1" height="0.3"/>
		<rect x="84.1" y="114.8" class="st0" width="1.1" height="0.3"/>
		<rect x="84.1" y="114.5" class="st0" width="1.1" height="0.3"/>
		<rect x="84.1" y="114" class="st0" width="1.1" height="0.3"/>
		<rect x="84.1" y="113.5" class="st0" width="1.1" height="0.3"/>
		<rect x="84.1" y="112.9" class="st0" width="1.1" height="0.3"/>
		<rect x="84.1" y="112.3" class="st0" width="1.1" height="0.3"/>
		<rect x="84.1" y="111.9" class="st0" width="1.1" height="0.3"/>
		<rect x="84.1" y="111.4" class="st0" width="1.1" height="0.3"/>
		<rect x="84.1" y="110.9" class="st0" width="1.1" height="0.3"/>
		<rect x="84.1" y="110.4" class="st0" width="1.1" height="0.3"/>
		<rect x="84.1" y="109.8" class="st0" width="1.1" height="0.3"/>
		<rect x="84.1" y="109.4" class="st0" width="1.1" height="0.3"/>
		<rect x="84.1" y="108.9" class="st0" width="1.1" height="0.3"/>
		<rect x="84.1" y="108.4" class="st0" width="1.1" height="0.3"/>
		<rect x="84.1" y="107.9" class="st0" width="1" height="0.3"/>
		<rect x="84.1" y="107.4" class="st0" width="1.1" height="0.3"/>
		<rect x="84.1" y="106.9" class="st0" width="1.1" height="0.3"/>
		<rect x="84.1" y="106.4" class="st0" width="1.1" height="0.3"/>
		<rect x="84.1" y="105.8" class="st0" width="1.1" height="0.3"/>
		<rect x="84.1" y="105.4" class="st0" width="1.1" height="0.3"/>
		<rect x="84.1" y="104.9" class="st0" width="1.1" height="0.3"/>
		
			<rect x="-6.5" y="71.2" transform="matrix(0.3602 -0.9329 0.9329 0.3602 -33.4332 95.4531)" class="st1" width="118.7" height="1.8"/>
		
			<rect x="106.7" y="12.5" transform="matrix(0.9292 -0.3696 0.3696 0.9292 -19.0583 44.8784)" class="st1" width="1.8" height="119.4"/>
		
			<rect x="98" y="74.6" transform="matrix(0.7825 -0.6227 0.6227 0.7825 -43.5818 84.3223)" class="st1" width="1.8" height="59.9"/>
		<rect x="32.3" y="103.7" transform="matrix(0.6157 -0.788 0.788 0.6157 -58.5528 89.0912)" width="59.5" height="1.8"/>
		<rect x="49.6" y="80.5" width="61.6" height="1.3"/>
		<rect x="38.4" y="110.4" width="18.8" height="1.2"/>
		<rect x="44.2" y="94.9" width="24.8" height="1.3"/>
		<rect x="91.6" y="94.6" width="24.7" height="1.3"/>
		<rect x="112.9" y="101.7" transform="matrix(3.316144e-03 -1 1 3.316144e-03 1.9562 224.209)" width="1.2" height="18.9"/>
		<rect x="50.1" y="93.7" transform="matrix(0.76 -0.65 0.65 0.76 -55.3971 57.7856)" class="st1" width="0.9" height="20.4"/>
		
			<rect x="37.1" y="102.4" transform="matrix(0.8959 -0.4443 0.4443 0.8959 -40.0362 34.8252)" class="st1" width="34.4" height="0.9"/>
		
			<rect x="59.3" y="75.7" transform="matrix(0.5704 -0.8213 0.8213 0.5704 -46.9244 87.0346)" class="st1" width="0.9" height="25.3"/>
		
			<rect x="43.5" y="87.6" transform="matrix(0.9349 -0.3548 0.3548 0.9349 -27.1511 28.0256)" class="st1" width="38.7" height="0.9"/>
		
			<rect x="98.1" y="68.9" transform="matrix(0.3548 -0.9349 0.9349 0.3548 -18.7698 148.9189)" class="st1" width="0.9" height="38.4"/>
		
			<rect x="88.7" y="87.6" transform="matrix(0.834 -0.5518 0.5518 0.834 -31.8097 70.4337)" class="st1" width="24.9" height="0.9"/>
		
			<rect x="100.6" y="102.6" transform="matrix(0.6273 -0.7788 0.7788 0.6273 -39.1724 124.2712)" class="st1" width="19.3" height="0.9"/>
		
			<rect x="106.3" y="85.2" transform="matrix(0.4457 -0.8952 0.8952 0.4457 -32.8716 152.5083)" class="st1" width="0.9" height="35.2"/>
		<rect x="55.4" y="64.9" width="49.6" height="1.2"/>
		<rect x="60.8" y="51.8" width="38.8" height="1.2"/>
		<rect x="79.5" y="26.1" transform="matrix(1.221724e-03 -1 1 1.221724e-03 38.9703 121.153)" width="1.2" height="30"/>
		<rect x="67.6" y="32.4" width="24.1" height="1.5"/>
		<rect x="79.2" y="17.4" transform="matrix(5.410372e-03 -1 1 5.410372e-03 52.2601 107.121)" width="1.6" height="19.8"/>
		<rect x="79.2" y="14.9" transform="matrix(4.712261e-03 -1 1 4.712261e-03 56.5022 102.6717)" width="1.3" height="16.2"/>
		
			<rect x="72.2" y="20.7" transform="matrix(0.9843 -0.1767 0.1767 0.9843 -2.4871 14.3534)" class="st1" width="14.3" height="0.9"/>
		<rect x="79.8" y="14.4" transform="matrix(0.185 -0.9827 0.9827 0.185 44.6204 96.1073)" class="st1" width="0.9" height="13.6"/>
		<rect x="70.7" y="24.7" transform="matrix(0.9827 -0.185 0.185 0.9827 -3.2858 15.0871)" class="st1" width="17" height="0.9"/>
		<rect x="80.1" y="16.6" transform="matrix(0.184 -0.9829 0.9829 0.184 41.0736 99.722)" class="st1" width="0.9" height="17"/>
		
			<rect x="80.5" y="19.2" transform="matrix(0.229 -0.9734 0.9734 0.229 32.9683 102.1792)" class="st1" width="0.9" height="22.2"/>
		<rect x="68" y="29.9" transform="matrix(0.9738 -0.2273 0.2273 0.9738 -4.8224 18.7971)" class="st1" width="22.4" height="0.9"/>
		
			<rect x="61.1" y="46.1" transform="matrix(0.9573 -0.2892 0.2892 0.9573 -10.1025 24.7208)" class="st1" width="35" height="0.9"/>
		
			<rect x="81.6" y="28.9" transform="matrix(0.291 -0.9567 0.9567 0.291 13.5511 111.5207)" class="st1" width="0.9" height="35.4"/>
		
			<rect x="54" y="58.8" transform="matrix(0.9633 -0.2684 0.2684 0.9633 -13.0661 22.9231)" class="st1" width="46.6" height="0.9"/>
		
			<rect x="82.1" y="36.4" transform="matrix(0.2639 -0.9646 0.9646 0.2639 3.9169 122.9689)" class="st1" width="0.9" height="45.1"/>
		
			<rect x="48.9" y="72.8" transform="matrix(0.9681 -0.2505 0.2505 0.9681 -15.8848 21.7102)" class="st1" width="56.9" height="0.9"/>
		
			<rect x="82.5" y="44.5" transform="matrix(0.2566 -0.9665 0.9665 0.2566 -9.1105 134.6034)" class="st1" width="0.9" height="57.5"/>
		<rect x="73.3" y="17.2" transform="matrix(0.9865 -0.164 0.164 0.9865 -1.8237 13.2119)" class="st1" width="11.6" height="0.9"/>
		<rect x="79.4" y="12" transform="matrix(0.1625 -0.9867 0.9867 0.1625 49.4208 93.6811)" class="st1" width="0.9" height="11.5"/>
		
			<rect x="73" y="67.3" transform="matrix(0.6082 -0.7938 0.7938 0.6082 -18.5329 97.9244)" class="st1" width="33.9" height="0.9"/>
		
			<rect x="73.9" y="68.3" transform="matrix(0.6173 -0.7867 0.7867 0.6173 -19.3699 97.6413)" class="st1" width="33.6" height="0.9"/>
		
			<rect x="69.8" y="50.9" transform="matrix(0.7867 -0.6173 0.6173 0.7867 -26.4887 57.7105)" class="st1" width="0.9" height="32.6"/>
		
			<rect x="69.5" y="51.9" transform="matrix(0.7841 -0.6206 0.6206 0.7841 -27.4754 58.2336)" class="st1" width="0.9" height="33.5"/>
		<rect x="73.2" y="18.5" width="13.3" height="1.4"/>
		<rect x="80.7" y="23.7" transform="matrix(0.2431 -0.97 0.97 0.2431 25.2951 106.96)" class="st1" width="0.9" height="27.1"/>
		<rect x="65.1" y="36.8" transform="matrix(0.9704 -0.2416 0.2416 0.9704 -6.6691 20.0943)" class="st1" width="27" height="0.9"/>
		<path d="M117.4,128.4H44c-0.1,0-0.2-0.1-0.2-0.1c0-0.1,0.1-0.2,0.2-0.2h73.5c0.1,0,0.2,0.1,0.2,0.2
			C117.6,128.4,117.5,128.4,117.4,128.4z"/>
		<path class="st1" d="M134.3,128.5c-1.9-0.3-5.9-3.5-6.7-4.1l1.1-1.4c1.8,1.5,4.9,3.6,5.9,3.8L134.3,128.5z"/>
		<path class="st1" d="M26,128.5l-0.8-1.6l1.7-0.8c2.3-0.9,4.3-2.3,6-4l1.3,1.2c-1.8,1.9-4.1,3.4-6.5,4.4L26,128.5z"/>
		<path class="st1" d="M30,128.1l-1.1-1.4c0.4-0.4,0.9-0.7,1.4-0.9c0.2-0.1,0.2-0.1,0.9-1l1.5,1c-0.8,1.1-0.9,1.3-1.5,1.6
			C30.8,127.6,30.4,127.8,30,128.1z"/>
		<rect x="25.2" y="126.8" class="st1" width="18.8" height="1.8"/>
		
			<rect x="129.8" y="125.7" transform="matrix(0.6767 -0.7362 0.7362 0.6767 -51.2002 136.9875)" class="st1" width="1.2" height="2.2"/>
		
			<rect x="125.2" y="118.9" transform="matrix(1.396294e-03 -1 1 1.396294e-03 -1.6855 253.4628)" class="st1" width="1.8" height="17.4"/>
		<rect x="73.9" y="14.7" class="st1" width="11.8" height="2.7"/>
		<rect x="75.9" y="13.4" class="st1" width="7.6" height="0.7"/>
	</g>
</g>
</svg>
