<svg id="Capa_1" data-name="Capa 1" xmlns="http://www.w3.org/2000/svg" viewBox="0 0 200 200"><title>torre</title><g id="Capa_2" data-name="Capa 2"><g id="Capa_1-2" data-name="Capa 1-2"><polygon points="78.62 53.12 120.46 52.94 126.01 67.44 72.87 67.38 78.62 53.12" style="fill:#fff"/><path d="M126.09,67.5H126l-53.18-.06,5.73-14.38h0l41.9-.18h0ZM73,67.32h52.94L120.39,53l-41.77.18Z" style="fill:#262424"/><polygon points="120.25 52.48 104.92 14.17 92.96 14.3 77.91 52.6 120.25 52.48" style="fill:#63b1e4"/><polygon points="139.33 134.39 153.18 134.39 126.11 67.15 87 67.2 139.33 134.39" style="fill:#63b1e4"/><polygon points="60.01 134.67 112.71 67.14 72.59 67.26 46.22 134.79 60.01 134.67" style="fill:#63b1e4"/><path d="M65.6,135.12l5.55.09c.1-.82.49-1.45,1.26-1.55l5.65-.09v-.63c-.39.09-1.17-.18-1.17-.64v-8.55a2.23,2.23,0,0,1,1.78-1.88V120c.1-1,1.56-1.55,2.72-1.55.58-1.81,2.52-2.27,4.29-2.91-.1-1,.29-2.09,1.46-2L87,113c.1-.18.19-.37.39-.37H88v-4.4a.89.89,0,0,1,.77-1h.11l1.85.09a1,1,0,0,1,1,.54v6.83a13.7,13.7,0,0,1,2.82-.19l-.1-20.83h.39v5.65A2.68,2.68,0,0,1,97,102.27l.1.09c1.65.28,1.75,1.36,1.75,3,1.26.09,1.65,1.26,1.65,2.46a1.83,1.83,0,0,1,1.75,1.64l-.1,3.45h1.36v-3h.39v-5.55h.29l.1,5.65.58-.09c2,0,3.11,1.73,3.71,3.91l.39-.09-.1-5.55a.72.72,0,0,1,.68-.73l3.31-.09a.7.7,0,0,1,.58.64v.82c.68,0,.88.19,1,.37v5.91h2.24v-3.67a2.72,2.72,0,0,1,2.82,2.18l-.1,6.55c2.82.37,7.31,1.45,7.21,1.92l.88,5.55.05,3v1l.29.18-.1,2h-1.17c0,.54-.87,1.18-1.55,1.46h3.31l.1.54H104.84l-14.37-.14H65.6Z" style="fill:#0c0d03"/><path d="M74.24,134.48h8.67c.24,0,.4.35.38.6H73.88A.66.66,0,0,1,74.24,134.48Z" style="fill:#fff"/><path d="M77.46,123.93c.09-.62.45-1.56,1.17-1.58v1.37c0,.55-.49.48-.6,1.26v7.42c-.15,0-.47,0-.54-.16Z" style="fill:#fff"/><path d="M79.33,125.1c-.08-.64.66-.79.62-1.1v-3.64a.73.73,0,0,1,.7-.76H82.4v6.72h4.66c.33,0,.33.15.34.45v3.68a6.15,6.15,0,0,0-2.21.14.87.87,0,0,0-.71.84,1.1,1.1,0,0,0-.45,2.13H79.32v-.64c.92,0,2,0,2-1V129l.3-.23.28-.13c.13,0,.14-.16.28-.21a5.53,5.53,0,0,0,0-1.84c-.53-.21-.24-1.26-1.07-1.5V124c0-.83.08-1.4.76-1.73V122a1.76,1.76,0,0,0-1.11,1.93v1.2c-.77,0-.38.93-.93.95v1.75h.66v1.07l.34.11v2.86c0,.4-.84.44-1.47.44Z" style="fill:#fff"/><polygon points="81.43 126.83 81.83 127.09 81.83 128.24 81.41 128.39 81.43 126.83" style="fill:#fff"/><path d="M103.29,116.83v8L100.62,126l-.32.28-.09.33-.29.92-.1.88.13,1.15.28.63.48.62.3.34.24.14h.29v1.42l.91.09v.74l1,.06c.37,1.17,1,1.54,1.63,1.61H98v-.48a.5.5,0,0,0,.35-.45V131l.2-.15.14-.18-.14-.18-.21-.16V127.1c0-.2,0-.34-.34-.39h-.71V126H97v-.57h.25v-.68h-1v.3H95v-.26H93.87v.66h.39V126H94v.73h-.57c-.43.09-.44.19-.45.58v3.15l-.33.11-.09.19.15.24.28.11v3.29a.48.48,0,0,0,.35.44v.42H91.42a1.8,1.8,0,0,0-1.26-1.79H88.9v-.23l2.1-2.06-.13-.18-.37.28h-2v-5.13a1,1,0,0,0-1.11-.88h-4v-1.89h3.91a1.35,1.35,0,0,0,1.26-1.26v-2.39a1.08,1.08,0,0,0-1.09-1.07H82.12c.55-1.55,2.87-2,4-2.22A41.91,41.91,0,0,1,103.29,116.83Zm5.41,1.26.58-.52H110v4.63l-1.26.59v-4.6Zm-3.68-.73v6.77l2.52-.95v-4.41l-.81-.68-1.73-.64Zm8.82,5.31-12.63,4.25v1.49l10.08-3.26.63.19.37.29.25.3.14.29h1.26V123l-.11-.11Z" style="fill:#fff"/><path d="M84,131.68v1.49a.79.79,0,0,1,0-1.49Z" style="fill:#fff"/><path d="M83.48,119.58H87c.35.08.43.11.52.45v1.55a.58.58,0,0,1-.59.42H83.48Z" style="fill:#fff"/><path d="M84.92,131.59c-.39-.77,3.78-.73,3.45,0v1.63l-.13.09-.14.08H84.92Z" style="fill:#fff"/><path d="M87,113.81v1.76H85.89C85.85,114.65,85.94,113.77,87,113.81Z" style="fill:#fff"/><polygon points="87.26 113.91 87.84 113.92 87.84 115.67 87.26 115.67 87.26 113.91" style="fill:#fff"/><path d="M87.62,112.87h.19v.64h-.55C87.24,113.05,87.15,112.9,87.62,112.87Z" style="fill:#fff"/><polygon points="89 131.33 90.46 131.33 89 132.54 89 131.33" style="fill:#fff"/><path d="M89.85,113.86H91v1.4H89.9C89.32,115.24,89.22,114,89.85,113.86Z" style="fill:#fff"/><path d="M89.88,108.31h1v1.63h-1C89.22,110,88.93,108.56,89.88,108.31Z" style="fill:#fff"/><path d="M93.44,130.39l.29-.08V127.2a.24.24,0,0,1,.19-.28h3.69a.23.23,0,0,1,.26.23v3.06l.18.11.11.15-.13.21-.18.11v2.8a.34.34,0,0,1-.29.35v1.12H94v-.6h3.33V134H93.7v-3.1l-.28-.1-.13-.16Z" style="fill:#fff"/><polygon points="97.57 130.38 97.58 130.77 93.85 130.84 93.84 130.47 97.57 130.38" style="fill:#262424"/><polygon points="95.14 125.04 96.46 125.04 96.46 126.41 95.13 126.41 95.14 125.04" style="fill:#fff"/><polygon points="98 108.12 98.67 108.17 98.66 112.79 98 112.88 98 108.12" style="fill:#fff"/><polygon points="103.76 121.66 104.91 121.67 104.92 121.94 103.77 121.94 103.76 121.66" style="fill:#fff"/><polygon points="103.79 124.29 104.92 124.29 103.8 124.55 103.79 124.29" style="fill:#fff"/><polygon points="103.77 122.19 104.92 122.19 104.91 122.48 103.79 122.44 103.77 122.19" style="fill:#fff"/><polygon points="103.73 122.72 104.89 122.72 104.89 123.01 103.75 123 103.73 122.72" style="fill:#fff"/><path d="M107.55,133.61h.28a1.32,1.32,0,0,0,1.06,1.35l-2.67-.09A1.6,1.6,0,0,0,107.55,133.61Z" style="fill:#fff"/><polygon points="107.08 128.55 114.21 126.42 114.18 127.13 107.21 129.12 107.08 128.55" style="fill:#fff"/><polygon points="114.5 128.21 114.68 128.93 109.36 130.32 109.2 129.64 114.5 128.21" style="fill:#fff"/><path d="M109.38,108.36c0-.43.37-.52.63-.5h2.52c.26,0,.33.14.28.42v.43h-.91c-.32,0-.44.11-.43.53v5h-2.09Z" style="fill:#fff"/><path d="M111.44,133.47h4.88a2.17,2.17,0,0,0,1.83,1.51h-8.53A1.81,1.81,0,0,0,111.44,133.47Z" style="fill:#fff"/><polygon points="110.52 131.06 116.15 129.55 116.24 130.1 110.78 131.52 110.52 131.06" style="fill:#fff"/><polygon points="114.3 115.62 116.54 115.64 116.54 117.3 114.3 117.29 114.3 115.62" style="fill:#fff"/><path d="M114.27,117.77h2.24v2.41a7.35,7.35,0,0,0-2.24.69Z" style="fill:#fff"/><path d="M115.24,122.74c0-.44.3-.59.72-.6h1v5.53c0,.16-.23.13-.42.13h-1.26Z" style="fill:#fff"/><path d="M117.76,122.09h3.11c.67,0,.67.34.66.72v3.48a.45.45,0,0,1-.3.56h-3.48Z" style="fill:#fff"/><path d="M120.86,133.62H122c0,.86,1,1.35,1.79,1.45H119.3A2,2,0,0,0,120.86,133.62Z" style="fill:#fff"/><path d="M122.34,131.67h4.88a.4.4,0,0,1,.3.55v.83H122V132A.86.86,0,0,1,122.34,131.67Z" style="fill:#fff"/><polygon points="123.44 130.56 123.44 131.3 122.17 131.3 122.17 130.56 123.44 130.56" style="fill:#fff"/><path d="M122.92,127.13v-4.46c.09-.24.26-.21.53-.21h2.61l.5,4.66h-.34c0-1.58-2.33-1.36-2.72,0Z" style="fill:#fff"/><path d="M126,127.14h-2.05C123.85,126.13,126.11,125.87,126,127.14Z" style="fill:#fff"/><polygon points="125.98 130.53 125.98 130.53 127.22 130.53 127.19 131.23 126.01 131.21 125.98 130.53" style="fill:#fff"/><rect x="103.72" y="123.87" width="1.15" height="0.26" style="fill:#fff"/><rect x="103.72" y="123.25" width="1.13" height="0.28" style="fill:#fff"/><rect x="103.72" y="121.02" width="1.13" height="0.26" style="fill:#fff"/><rect x="103.72" y="120.65" width="1.13" height="0.28" style="fill:#fff"/><rect x="103.72" y="120.16" width="1.13" height="0.28" style="fill:#fff"/><rect x="103.72" y="119.54" width="1.15" height="0.28" style="fill:#fff"/><rect x="103.72" y="118.92" width="1.13" height="0.28" style="fill:#fff"/><rect x="103.72" y="118.31" width="1.13" height="0.28" style="fill:#fff"/><rect x="103.72" y="117.8" width="1.13" height="0.28" style="fill:#fff"/><rect x="103.72" y="117.31" width="1.13" height="0.28" style="fill:#fff"/><rect x="103.72" y="116.69" width="1.13" height="0.26" style="fill:#fff"/><rect x="103.72" y="116.2" width="1.13" height="0.28" style="fill:#fff"/><rect x="103.72" y="115.58" width="1.13" height="0.26" style="fill:#fff"/><rect x="103.72" y="115.09" width="1.13" height="0.28" style="fill:#fff"/><rect x="103.72" y="114.6" width="1.13" height="0.26" style="fill:#fff"/><rect x="103.72" y="113.98" width="1.15" height="0.26" style="fill:#fff"/><rect x="103.72" y="113.48" width="1.13" height="0.26" style="fill:#fff"/><rect x="103.72" y="112.99" width="1.13" height="0.28" style="fill:#fff"/><rect x="103.72" y="112.37" width="1.13" height="0.26" style="fill:#fff"/><rect x="103.72" y="111.88" width="1.13" height="0.28" style="fill:#fff"/><rect x="103.72" y="111.26" width="1.13" height="0.28" style="fill:#fff"/><rect x="103.72" y="110.77" width="1.13" height="0.26" style="fill:#fff"/><rect x="103.72" y="110.28" width="1.13" height="0.29" style="fill:#fff"/><rect x="5.4" y="73.7" width="128.85" height="1.9" transform="translate(-24.94 112.97) rotate(-68.93)" style="fill:#262424"/><rect x="128.22" y="9.93" width="1.9" height="129.64" transform="translate(-18.48 53.03) rotate(-21.69)" style="fill:#262424"/><rect x="118.83" y="77.38" width="1.9" height="64.99" transform="translate(-42.36 98.48) rotate(-38.51)" style="fill:#262424"/><rect x="47.5" y="108.93" width="64.56" height="1.9" transform="translate(-55.92 105.05) rotate(-51.98)"/><rect x="66.3" y="83.7" width="66.83" height="1.39"/><rect x="54.15" y="116.15" width="20.42" height="1.34"/><rect x="60.39" y="99.43" width="26.88" height="1.35"/><rect x="111.92" y="99.1" width="26.77" height="1.35"/><rect x="124.93" y="115.92" width="20.56" height="1.34"/><rect x="67.11" y="97.4" width="0.96" height="22.14" transform="translate(-54.5 70.68) rotate(-40.87)" style="fill:#262424"/><rect x="52.69" y="107.56" width="37.33" height="0.96" transform="translate(-40.72 43.21) rotate(-26.51)" style="fill:#262424"/><rect x="76.74" y="78.61" width="0.96" height="27.39" transform="translate(-42.64 103.03) rotate(-55.2)" style="fill:#262424"/><rect x="59.68" y="91.5" width="41.96" height="0.96" transform="translate(-27.34 34.51) rotate(-20.73)" style="fill:#262424"/><rect x="118.89" y="71.19" width="0.96" height="41.63" transform="translate(-9 170.97) rotate(-69.22)" style="fill:#262424"/><polygon points="111.3 99.84 110.77 99.05 133.29 84.1 133.82 84.89 111.3 99.84" style="fill:#262424"/><rect x="121.68" y="107.76" width="20.9" height="0.96" transform="translate(-34.97 143.62) rotate(-51.28)" style="fill:#262424"/><rect x="127.76" y="88.83" width="0.96" height="38.16" transform="translate(-25.52 174.61) rotate(-63.53)" style="fill:#262424"/><rect x="72.63" y="66.81" width="53.78" height="1.34"/><rect x="78.46" y="52.6" width="42.15" height="1.34"/><polygon points="115.73 41.61 83.19 41.56 83.19 40.21 115.73 40.26 115.73 41.61"/><rect x="98.47" y="19.47" width="1.6" height="26.15" transform="translate(66.33 131.68) rotate(-89.77)"/><rect x="98.45" y="15.31" width="1.69" height="21.45" transform="translate(72.72 125.19) rotate(-89.69)"/><polygon points="107.89 22.1 90.29 22.03 90.29 20.58 107.91 20.66 107.89 22.1"/><polygon points="90.98 21.19 90.82 20.26 106.06 17.5 106.22 18.45 90.98 21.19" style="fill:#262424"/><rect x="99.11" y="11.92" width="0.96" height="14.78" transform="translate(62.19 113.61) rotate(-79.34)" style="fill:#262424"/><polygon points="89.44 25.84 89.27 24.91 107.44 21.5 107.62 22.43 89.44 25.84" style="fill:#262424"/><rect x="99.05" y="14.66" width="0.96" height="18.42" transform="translate(58.07 117.45) rotate(-79.59)" style="fill:#262424"/><rect x="99.9" y="17.25" width="0.96" height="24.09" transform="translate(48.87 120.3) rotate(-76.76)" style="fill:#262424"/><rect x="86.21" y="28.83" width="24.26" height="0.96" transform="translate(-4.09 23.12) rotate(-13.14)" style="fill:#262424"/><rect x="78.41" y="46.68" width="37.9" height="0.96" transform="translate(-9.48 30.15) rotate(-16.8)" style="fill:#262424"/><polygon points="119.74 53.04 83.02 41.87 83.29 40.96 120.02 52.14 119.74 53.04" style="fill:#262424"/><rect x="71.08" y="60.2" width="50.55" height="0.96" transform="translate(-12.8 28.24) rotate(-15.65)" style="fill:#262424"/><rect x="101.07" y="36.12" width="0.95" height="48.7" transform="matrix(0.26, -0.97, 0.97, 0.26, 16.64, 142.69)" style="fill:#262424"/><rect x="65.62" y="75.65" width="61.9" height="0.96" transform="translate(-15.95 26.51) rotate(-14.45)" style="fill:#262424"/><rect x="101.98" y="44.67" width="0.96" height="62.4" transform="matrix(0.26, -0.97, 0.97, 0.26, 2.84, 155.43)" style="fill:#262424"/><polygon points="92.2 17.01 92.04 16.08 104.43 14.02 104.58 14.97 92.2 17.01" style="fill:#262424"/><rect x="98.72" y="9.4" width="0.96" height="12.53" transform="translate(67.63 111) rotate(-80.65)" style="fill:#262424"/><rect x="91.67" y="69.44" width="36.78" height="0.96" transform="translate(-12.4 114.69) rotate(-52.51)" style="fill:#262424"/><rect x="92.63" y="70.53" width="36.46" height="0.96" transform="translate(-13.47 114.33) rotate(-51.85)" style="fill:#262424"/><rect x="88.22" y="51.61" width="0.96" height="35.39" transform="translate(-23.86 69.53) rotate(-38.12)" style="fill:#262424"/><polygon points="99.24 85.42 76.67 56.9 77.43 56.31 99.99 84.82 99.24 85.42" style="fill:#262424"/><rect x="91.88" y="16.43" width="14.41" height="1.54"/><rect x="100.1" y="22.09" width="0.96" height="29.43" transform="translate(40.43 125.43) rotate(-75.93)" style="fill:#262424"/><polygon points="83.63 40.81 83.39 39.89 111.86 32.79 112.09 33.71 83.63 40.81" style="fill:#262424"/><path d="M140,135.74H60.23a.16.16,0,1,1,0-.32H140a.16.16,0,1,1,0,.32Z"/><path d="M158.26,135.84c-2-.34-6.44-3.78-7.3-4.5l1.26-1.51c2,1.59,5.28,3.92,6.4,4.11Z" style="fill:#262424"/><path d="M40.7,135.83l-.86-1.74,1.81-.87a18.45,18.45,0,0,0,6.5-4.37l1.4,1.35a20.49,20.49,0,0,1-7,4.8Z" style="fill:#262424"/><path d="M45,135.46l-1.18-1.54a10.31,10.31,0,0,1,1.55-1c.24-.13.26-.14,1-1.11l1.59,1.11c-.82,1.17-1,1.39-1.63,1.71A8.43,8.43,0,0,0,45,135.46Z" style="fill:#262424"/><rect x="39.82" y="134.02" width="20.44" height="1.9" style="fill:#262424"/><rect x="153.32" y="132.85" width="1.35" height="2.34" transform="translate(-48.88 156.73) rotate(-47.42)" style="fill:#262424"/><rect x="148.34" y="125.41" width="1.9" height="18.94" transform="translate(14.2 283.98) rotate(-89.92)" style="fill:#262424"/><rect x="92.66" y="12.33" width="12.76" height="2.96" style="fill:#262424"/><path d="M37.54,145.41l1.49-.15a1.81,1.81,0,0,0,.54,1.1,1.64,1.64,0,0,0,1.11.35,1.69,1.69,0,0,0,1.11-.32.93.93,0,0,0,.37-.73.71.71,0,0,0-.15-.45,1.26,1.26,0,0,0-.54-.33q-.26-.09-1.26-.33a4.13,4.13,0,0,1-1.71-.76,2,2,0,0,1,.59-3.38,3.78,3.78,0,0,1,1.49-.26,3.15,3.15,0,0,1,2.13.63,2.24,2.24,0,0,1,.76,1.69H41.91a1.34,1.34,0,0,0-.42-.84,1.53,1.53,0,0,0-1-.25,1.71,1.71,0,0,0-1,.28.55.55,0,0,0-.24.47.58.58,0,0,0,.23.45,3.91,3.91,0,0,0,1.4.5,7.32,7.32,0,0,1,1.64.54,2.1,2.1,0,0,1,.83.77,2.38,2.38,0,0,1,0,2.42,2.17,2.17,0,0,1-1,.84,4.27,4.27,0,0,1-1.65.28,3.29,3.29,0,0,1-2.21-.67A2.89,2.89,0,0,1,37.54,145.41Zm7.39,2.45V140.3h1.54v7.56Zm3,0V140.3H49.4l3.11,5v-5h1.41v7.56H52.4l-3.06-5v5Zm7.56-7.56h2.79a5.38,5.38,0,0,1,1.44.14,2.52,2.52,0,0,1,1.13.69,3.28,3.28,0,0,1,.72,1.26,5.51,5.51,0,0,1,.25,1.79,4.94,4.94,0,0,1-.24,1.61,3.3,3.3,0,0,1-.81,1.34,2.65,2.65,0,0,1-1.07.6,4.56,4.56,0,0,1-1.35.16h-2.8v-7.56ZM57,141.55v5h1.13a4.13,4.13,0,0,0,.92-.08,1.39,1.39,0,0,0,.62-.32,1.59,1.59,0,0,0,.4-.73,4.9,4.9,0,0,0,.15-1.39,4.49,4.49,0,0,0-.15-1.35,1.75,1.75,0,0,0-.43-.73,1.44,1.44,0,0,0-.71-.35,6.84,6.84,0,0,0-1.26-.08Zm6,6.3v-7.56h1.59v7.56Zm7.83-2.79,1.47.45a3.35,3.35,0,0,1-1.13,1.85,3.21,3.21,0,0,1-2,.6,3.26,3.26,0,0,1-2.52-1,3.93,3.93,0,0,1-1-2.81,4.15,4.15,0,0,1,1-2.94,3.34,3.34,0,0,1,2.52-1,3.14,3.14,0,0,1,2.26.82,3,3,0,0,1,.78,1.4l-1.51.35a1.55,1.55,0,0,0-1.59-1.26,1.71,1.71,0,0,0-1.36.6,3,3,0,0,0-.53,2,3.16,3.16,0,0,0,.52,2,1.68,1.68,0,0,0,1.35.6,1.53,1.53,0,0,0,1-.39A2.26,2.26,0,0,0,70.8,145Zm9.6,2.79h-1.6l-.66-1.73h-3l-.63,1.73H73l2.94-7.56h1.61l3,7.56Zm-2.8-3-1-2.81-1,2.8Zm4.54,3H83.8v-6.3H86v-1.26H80v1.26h2.24v6.3Zm4.23-3.78a4.85,4.85,0,0,1,.35-1.94,3.52,3.52,0,0,1,.71-1,3,3,0,0,1,1-.68,4.17,4.17,0,0,1,1.64-.3,3.55,3.55,0,0,1,2.67,1,4.65,4.65,0,0,1,0,5.76,3.5,3.5,0,0,1-2.66,1,3.55,3.55,0,0,1-2.68-1,3.91,3.91,0,0,1-1-2.84Zm1.58,0a2.84,2.84,0,0,0,.59,2,2,2,0,0,0,2.82.18l.06-.05.13-.13a2.89,2.89,0,0,0,.59-2,2.82,2.82,0,0,0-.58-1.94,2.12,2.12,0,0,0-3,0h0a2.86,2.86,0,0,0-.58,2Zm9.89,3.78v-7.56h2.45a8.89,8.89,0,0,1,1.81.11,2,2,0,0,1,1.08.74,2.36,2.36,0,0,1,.44,1.47,2.52,2.52,0,0,1-.25,1.17,2.08,2.08,0,0,1-.64.74,2.22,2.22,0,0,1-.79.35,8.65,8.65,0,0,1-1.58.11h-1v2.85Zm1.53-6.3v2.16h.83a3.89,3.89,0,0,0,1.26-.11,1.06,1.06,0,0,0,.4-1.65,1.06,1.06,0,0,0-.62-.34,7.56,7.56,0,0,0-1.1,0Zm5.51,6.3v-7.56h5.68v1.26h-4.1v1.75h3.78v1.26h-3.78v2.05h4.21v1.26Zm8.75,0v-6.3h-2.19v-1.26h6v1.26h-2.23v6.3Zm4.75,0v-7.56h3.21a5.52,5.52,0,0,1,1.76.2,1.73,1.73,0,0,1,.88.72,2.18,2.18,0,0,1,.33,1.2,2,2,0,0,1-.5,1.41,2.38,2.38,0,0,1-1.49.69,3.43,3.43,0,0,1,.81.63,8.37,8.37,0,0,1,.87,1.26l.92,1.47h-1.76l-1.1-1.65a10.78,10.78,0,0,0-.81-1.11,1.17,1.17,0,0,0-.47-.32,2.52,2.52,0,0,0-.77-.09H120v3.15Zm1.54-4.36h1.13a5.75,5.75,0,0,0,1.37-.09.82.82,0,0,0,.43-.32,1,1,0,0,0,.16-.57.92.92,0,0,0-.2-.62,1,1,0,0,0-.58-.29H120v1.92Zm5.77.63a4.83,4.83,0,0,1,.35-1.94,3.54,3.54,0,0,1,.71-1,3,3,0,0,1,1-.68,4.15,4.15,0,0,1,1.63-.3,3.55,3.55,0,0,1,2.67,1,4.64,4.64,0,0,1,0,5.76,4,4,0,0,1-5.34,0,3.91,3.91,0,0,1-1-2.84Zm1.58,0a2.84,2.84,0,0,0,.59,2,2,2,0,0,0,2.82.18l.06-.05.13-.13a2.9,2.9,0,0,0,.58-2,2.84,2.84,0,0,0-.57-1.94,1.93,1.93,0,0,0-1.51-.64,2,2,0,0,0-1.53.64,2.87,2.87,0,0,0-.58,2Zm7,3.78v-7.5h1.54v6.21h3.78v1.26Zm6.4,0v-7.56h5.6v1.26h-4v1.7h3.78v1.26H142.3v2.05h4.21v1.26Zm7,0v-7.56H151a5.51,5.51,0,0,1,1.76.2,1.74,1.74,0,0,1,.88.72,2.19,2.19,0,0,1,.33,1.2,2,2,0,0,1-.49,1.41,2.39,2.39,0,0,1-1.49.69,3.5,3.5,0,0,1,.81.63,8.58,8.58,0,0,1,.87,1.26l.92,1.47h-1.78l-1.1-1.65a10.46,10.46,0,0,0-.81-1.11,1.15,1.15,0,0,0-.45-.32,2.52,2.52,0,0,0-.77-.09h-.3v3.15Zm1.54-4.36h1.12a5.76,5.76,0,0,0,1.37-.09.82.82,0,0,0,.43-.32,1,1,0,0,0,.15-.57.92.92,0,0,0-.2-.62.93.93,0,0,0-.58-.29h-2.29v1.88Zm5.77.63a4.83,4.83,0,0,1,.35-1.94,3.59,3.59,0,0,1,.71-1,2.94,2.94,0,0,1,1-.68,4.15,4.15,0,0,1,1.63-.3,3.55,3.55,0,0,1,2.67,1,4.64,4.64,0,0,1,0,5.76,3.5,3.5,0,0,1-2.66,1,3.54,3.54,0,0,1-2.68-1,3.91,3.91,0,0,1-1-2.84Zm1.58,0a2.82,2.82,0,0,0,.59,2,2,2,0,0,0,2.82.18l.06-.05.13-.13a2.9,2.9,0,0,0,.58-2,2.84,2.84,0,0,0-.57-1.94,1.93,1.93,0,0,0-1.51-.64,2,2,0,0,0-1.53.64,2.86,2.86,0,0,0-.58,2Zm-92,8h2.79a5.37,5.37,0,0,1,1.44.15A2.52,2.52,0,0,1,70,153a3.31,3.31,0,0,1,.72,1.26A5.6,5.6,0,0,1,71,156a5,5,0,0,1-.24,1.61,3.3,3.3,0,0,1-.81,1.34,2.66,2.66,0,0,1-1.07.6,4.54,4.54,0,0,1-1.35.16H64.7V152.2Zm1.53,1.26v5h1.13a4.08,4.08,0,0,0,.92-.08,1.37,1.37,0,0,0,.62-.32,1.58,1.58,0,0,0,.4-.73,5,5,0,0,0,.15-1.39,4.55,4.55,0,0,0-.15-1.35,1.71,1.71,0,0,0-.43-.73,1.44,1.44,0,0,0-.71-.35,6.83,6.83,0,0,0-1.26-.08Zm6.1,6.3v-7.56h5.6v1.26h-4v1.68H77.6v1.26H73.89v2H78.1v1.26ZM87.1,157l1.49.45a3.38,3.38,0,0,1-1.13,1.85,3.2,3.2,0,0,1-2,.6,3.26,3.26,0,0,1-2.52-1A4,4,0,0,1,82,156a4.15,4.15,0,0,1,1-2.94,3.35,3.35,0,0,1,2.52-1,3.14,3.14,0,0,1,2.26.82,3,3,0,0,1,.78,1.4l-1.51.37a1.55,1.55,0,0,0-1.59-1.27A1.71,1.71,0,0,0,84,154a2.94,2.94,0,0,0-.53,2,3.16,3.16,0,0,0,.52,2,1.68,1.68,0,0,0,1.42.47,1.54,1.54,0,0,0,1-.39,2.24,2.24,0,0,0,.63-1.26Zm2.52-.95a4.83,4.83,0,0,1,.35-1.94,3.54,3.54,0,0,1,.71-1,3,3,0,0,1,1-.68,4.17,4.17,0,0,1,1.63-.3,3.55,3.55,0,0,1,2.67,1,4.65,4.65,0,0,1,0,5.76,4.06,4.06,0,0,1-5.34,0,3.92,3.92,0,0,1-1-2.89Zm1.58,0a2.84,2.84,0,0,0,.59,2,2,2,0,0,0,2.82.18l.06-.05.13-.13a2.89,2.89,0,0,0,.58-2,2.84,2.84,0,0,0-.57-1.94,1.93,1.93,0,0,0-1.51-.64,2,2,0,0,0-1.53.64,2.86,2.86,0,0,0-.58,2Zm7,3.78v-7.56h3.21a5.52,5.52,0,0,1,1.76.2,1.73,1.73,0,0,1,.88.72,2.17,2.17,0,0,1,.33,1.2,2,2,0,0,1-.5,1.41,2.37,2.37,0,0,1-1.49.69,3.49,3.49,0,0,1,.82.63,8.82,8.82,0,0,1,.87,1.26l.93,1.34h-1.83L102,158a10.08,10.08,0,0,0-.81-1.11,1.16,1.16,0,0,0-.45-.32,2.61,2.61,0,0,0-.77-.09h-.3v3.16Zm1.54-4.36h1.12a5.85,5.85,0,0,0,1.37-.09.82.82,0,0,0,.43-.32,1,1,0,0,0,.15-.57.91.91,0,0,0-.2-.62.92.92,0,0,0-.58-.29H99.69v1.88Zm6.1-3.31h2.79a5.37,5.37,0,0,1,1.44.15,2.52,2.52,0,0,1,1.13.69,3.31,3.31,0,0,1,.72,1.26,5.61,5.61,0,0,1,.25,1.79,4.94,4.94,0,0,1-.23,1.61,3.34,3.34,0,0,1-.81,1.34,2.66,2.66,0,0,1-1.07.6,4.54,4.54,0,0,1-1.35.16h-2.87v-7.61Zm1.53,1.26v5h1.13a4.1,4.1,0,0,0,.92-.08A1.4,1.4,0,0,0,110,158a1.61,1.61,0,0,0,.4-.73,5,5,0,0,0,.15-1.39,4.54,4.54,0,0,0-.15-1.35,1.73,1.73,0,0,0-.43-.73,1.44,1.44,0,0,0-.71-.35,6.81,6.81,0,0,0-1.26-.08Zm5.85,2.52a4.85,4.85,0,0,1,.34-1.94,3.62,3.62,0,0,1,.71-1,3,3,0,0,1,1-.68,4.18,4.18,0,0,1,1.63-.3,3.55,3.55,0,0,1,2.67,1,4.65,4.65,0,0,1,0,5.76,4,4,0,0,1-5.34,0,3.91,3.91,0,0,1-1.07-2.88Zm1.58,0a2.84,2.84,0,0,0,.59,2,2,2,0,0,0,2.82.18l.06-.05.13-.13a2.89,2.89,0,0,0,.59-2,2.84,2.84,0,0,0-.57-1.94,1.93,1.93,0,0,0-1.51-.64,2,2,0,0,0-1.53.64,2.87,2.87,0,0,0-.66,2Zm7-3.78h3a8.58,8.58,0,0,1,1.34.08,1.92,1.92,0,0,1,1.37.95,1.73,1.73,0,0,1,.23.88,1.79,1.79,0,0,1-1.06,1.64,2,2,0,0,1,1.06.69,1.83,1.83,0,0,1,.37,1.15,2.23,2.23,0,0,1-.24,1,2,2,0,0,1-.66.78,2.18,2.18,0,0,1-1,.37h-4.36v-7.6Zm1.54,1.26v1.74h2.1a1,1,0,0,0,.62-.26.79.79,0,0,0,.23-.59.83.83,0,0,0-.19-.57.86.86,0,0,0-.57-.26h-1.26Zm0,3v2h1.41a6.87,6.87,0,0,0,1,0,.89.89,0,0,0,.77-.95,1,1,0,0,0-.16-.58.92.92,0,0,0-.48-.35,5.22,5.22,0,0,0-1.36-.11Zm12.83,3.3h-1.65l-.66-1.73h-3l-.63,1.73h-1.61l2.94-7.56H133Zm-2.74-3-1-2.8-1,2.8Z" style="fill:#262424"/><rect x="94.81" y="10.96" width="8.24" height="0.79" style="fill:#262424"/><path d="M37.54,174.81v-8.13h2.63a9.59,9.59,0,0,1,2,.13,2.14,2.14,0,0,1,1.17.79,2.52,2.52,0,0,1,.47,1.59,2.63,2.63,0,0,1-.28,1.26,2.22,2.22,0,0,1-.68.81,2.38,2.38,0,0,1-.84.39,9.34,9.34,0,0,1-1.7.11H39.18v3.05Zm1.64-6.76v2.32h.88a4.2,4.2,0,0,0,1.26-.13,1.07,1.07,0,0,0,.52-.4,1.11,1.11,0,0,0,.19-.63,1.06,1.06,0,0,0-.26-.73,1.13,1.13,0,0,0-.66-.37,8,8,0,0,0-1.17,0Zm9.31,4.89,1.55.26a2.52,2.52,0,0,1-1,1.26,2.79,2.79,0,0,1-1.61.44,2.63,2.63,0,0,1-2.27-1,3.39,3.39,0,0,1-.58-2,3.25,3.25,0,0,1,.76-2.29,2.52,2.52,0,0,1,1.94-.83,2.61,2.61,0,0,1,2.07.87,3.78,3.78,0,0,1,.74,2.67H46.25a1.59,1.59,0,0,0,.38,1.08,1.17,1.17,0,0,0,.89.38,1,1,0,0,0,.6-.2,1.26,1.26,0,0,0,.38-.64Zm.09-1.58a1.51,1.51,0,0,0-.35-1,1.12,1.12,0,0,0-1.65,0,1.45,1.45,0,0,0-.33,1Zm4.31,3.44H51.4v-5.89h1.39v.84a2.52,2.52,0,0,1,.67-.78,1.26,1.26,0,0,1,.68-.18,2,2,0,0,1,1,.29l-.48,1.36a1.37,1.37,0,0,0-.73-.25.86.86,0,0,0-.55.18A1.26,1.26,0,0,0,53,171a9.11,9.11,0,0,0-.13,2v1.77Zm2.37-1.65,1.56-.24a1.13,1.13,0,0,0,.4.68,1.36,1.36,0,0,0,.86.24,1.55,1.55,0,0,0,.88-.29.5.5,0,0,0,.2-.42.4.4,0,0,0-.11-.29,1.26,1.26,0,0,0-.52-.2,8.5,8.5,0,0,1-2.39-.76,1.53,1.53,0,0,1-.69-1.32,1.65,1.65,0,0,1,.6-1.26,2.82,2.82,0,0,1,1.88-.52,3.26,3.26,0,0,1,1.8.39,2,2,0,0,1,.81,1.17l-1.46.26a.92.92,0,0,0-.37-.53,1.26,1.26,0,0,0-.76-.18,1.7,1.7,0,0,0-.88.18.37.37,0,0,0-.18.32.35.35,0,0,0,.15.29,5.94,5.94,0,0,0,1.46.44,4.35,4.35,0,0,1,1.74.69,1.44,1.44,0,0,1,.49,1.16,1.78,1.78,0,0,1-.68,1.39,3,3,0,0,1-2,.58,3.31,3.31,0,0,1-1.9-.49,2.24,2.24,0,0,1-.92-1.26Zm6.5-1.36a3.19,3.19,0,0,1,.38-1.5,2.63,2.63,0,0,1,1.08-1.11,3.2,3.2,0,0,1,1.56-.38,2.92,2.92,0,0,1,2.18.87,3.26,3.26,0,0,1,0,4.41,2.91,2.91,0,0,1-2.17.88,3.4,3.4,0,0,1-1.54-.37,2.52,2.52,0,0,1-1.12-1.07,3.58,3.58,0,0,1-.38-1.73Zm1.6.09a2,2,0,0,0,.42,1.35,1.35,1.35,0,0,0,1.91.09l.09-.09a2.36,2.36,0,0,0,0-2.69,1.35,1.35,0,0,0-1.91-.09l-.09.09a2,2,0,0,0-.42,1.35Zm11.07,2.92h-1.6v-3a4.54,4.54,0,0,0-.1-1.26.86.86,0,0,0-.33-.43,1,1,0,0,0-.54-.15,1.26,1.26,0,0,0-.73.23,1.12,1.12,0,0,0-.44.58,5,5,0,0,0-.11,1.35v2.68H69v-5.89h1.44v.84a2.45,2.45,0,0,1,2.9-.81,1.59,1.59,0,0,1,.64.48,1.71,1.71,0,0,1,.3.66,4.84,4.84,0,0,1,.09,1v3.67Zm5-1.87,1.55.26a2.52,2.52,0,0,1-.95,1.26,2.79,2.79,0,0,1-1.61.44,2.63,2.63,0,0,1-2.27-1,3.39,3.39,0,0,1-.58-2,3.26,3.26,0,0,1,.76-2.29,2.52,2.52,0,0,1,1.94-.83,2.61,2.61,0,0,1,2.07.87,3.78,3.78,0,0,1,.72,2.66H77.15a1.6,1.6,0,0,0,.38,1.08,1.17,1.17,0,0,0,.89.38,1,1,0,0,0,.62-.2,1.26,1.26,0,0,0,.38-.64Zm.09-1.58a1.5,1.5,0,0,0-.35-1,1.12,1.12,0,0,0-1.65,0,1.46,1.46,0,0,0-.33,1Zm4.23,3.44h-1.5V168.9h1.44v.84a2.52,2.52,0,0,1,.67-.78,1.26,1.26,0,0,1,.68-.18,2,2,0,0,1,1,.29l-.48,1.36a1.35,1.35,0,0,0-.73-.25.87.87,0,0,0-.55.18,1.26,1.26,0,0,0-.37.66,9.29,9.29,0,0,0-.13,2Zm2.9,0V168.9H88.2v5.89Zm-.26-6.65.77-1.66H88.9l-1.54,1.66ZM91,170.68l-1.41-.25a2.23,2.23,0,0,1,.82-1.26,3,3,0,0,1,1.73-.42,3.78,3.78,0,0,1,1.55.24,1.58,1.58,0,0,1,.72.63,3.24,3.24,0,0,1,.2,1.4v1.81a6.3,6.3,0,0,0,.08,1.15,3.32,3.32,0,0,0,.28.79H93.45a4.58,4.58,0,0,1-.15-.45,1.55,1.55,0,0,0,0-.18,2.79,2.79,0,0,1-.84.59,2.42,2.42,0,0,1-1,.2,2,2,0,0,1-1.42-.49,1.64,1.64,0,0,1-.53-1.26,1.69,1.69,0,0,1,.24-.89,1.56,1.56,0,0,1,.67-.59,5.26,5.26,0,0,1,1.26-.37,8.56,8.56,0,0,0,1.51-.38v-.15a.82.82,0,0,0-.23-.64,1.34,1.34,0,0,0-.84-.19,1.08,1.08,0,0,0-.64.16,1.13,1.13,0,0,0-.38.58Zm2.09,1.26a9.49,9.49,0,0,1-.95.24,2.92,2.92,0,0,0-.84.26.66.66,0,0,0-.3.55.77.77,0,0,0,.24.57.84.84,0,0,0,.62.24,1.36,1.36,0,0,0,.81-.28A1,1,0,0,0,93,173a3.3,3.3,0,0,0,0-.76v-.32Zm10-.15v-1.37h3.53v3.24a4.46,4.46,0,0,1-1.49.88,5.41,5.41,0,0,1-2,.38,4.44,4.44,0,0,1-2.22-.53,3.43,3.43,0,0,1-1.42-1.54,4.94,4.94,0,0,1-.48-2.17,4.7,4.7,0,0,1,.53-2.26,3.59,3.59,0,0,1,1.56-1.51,4.18,4.18,0,0,1,2-.42,3.88,3.88,0,0,1,2.37.63,2.89,2.89,0,0,1,1.1,1.76l-1.64.3a1.73,1.73,0,0,0-.64-.95,2,2,0,0,0-1.18-.34,2.21,2.21,0,0,0-1.7.68,2.89,2.89,0,0,0-.63,2,3.2,3.2,0,0,0,.64,2.17,2.16,2.16,0,0,0,1.69.77,2.82,2.82,0,0,0,1-.2,3.49,3.49,0,0,0,.89-.49v-1Zm6.59,3h-1.55V168.9h1.44v.84a2.52,2.52,0,0,1,.67-.78,1.26,1.26,0,0,1,.68-.18,2,2,0,0,1,1,.29l-.48,1.36a1.36,1.36,0,0,0-.73-.25.87.87,0,0,0-.55.18,1.26,1.26,0,0,0-.35.66,9.11,9.11,0,0,0-.13,2v1.77Zm6.3-1.87,1.55.26a2.52,2.52,0,0,1-.95,1.26,2.8,2.8,0,0,1-1.61.44,2.62,2.62,0,0,1-2.27-1,3.37,3.37,0,0,1-.58-2,3.25,3.25,0,0,1,.77-2.29,2.52,2.52,0,0,1,1.93-.83,2.62,2.62,0,0,1,2.07.87,3.86,3.86,0,0,1,.72,2.66h-3.86a1.58,1.58,0,0,0,.38,1.08,1.17,1.17,0,0,0,.89.38,1,1,0,0,0,.67-.19,1.26,1.26,0,0,0,.38-.64Zm.09-1.58a1.51,1.51,0,0,0-.35-1,1.12,1.12,0,0,0-1.65,0,1.44,1.44,0,0,0-.33,1Zm2.7-2.46h1.46v.81a2.31,2.31,0,0,1,1.83-.93,2,2,0,0,1,1,.23,1.76,1.76,0,0,1,.68.71,2.74,2.74,0,0,1,.84-.71,2,2,0,0,1,1-.23,2.16,2.16,0,0,1,1.1.26,1.61,1.61,0,0,1,.67.77,3.33,3.33,0,0,1,.16,1.26v3.78H126v-3.45a2.52,2.52,0,0,0-.16-1.13.74.74,0,0,0-.67-.33,1.07,1.07,0,0,0-.62.2,1.12,1.12,0,0,0-.42.58A4.22,4.22,0,0,0,124,172v2.82h-1.55v-3.23a4.58,4.58,0,0,0-.09-1.11.69.69,0,0,0-.26-.38.81.81,0,0,0-.47-.13,1.13,1.13,0,0,0-.64.19,1.06,1.06,0,0,0-.42.55,4.16,4.16,0,0,0-.13,1.26v2.84h-1.6v-5.89Zm10.21-.79v-1.44h1.59v1.44Zm0,6.68v-5.89h1.59v5.9Zm4.36-4.1-1.41-.25a2.23,2.23,0,0,1,.82-1.26,3,3,0,0,1,1.73-.42A3.78,3.78,0,0,1,136,169a1.55,1.55,0,0,1,.72.63,3.18,3.18,0,0,1,.21,1.4v1.81A6.55,6.55,0,0,0,137,174a3.16,3.16,0,0,0,.28.79h-1.59a2.65,2.65,0,0,0-.15-.45,1.26,1.26,0,0,0,0-.18,2.79,2.79,0,0,1-.84.59,2.43,2.43,0,0,1-1,.2,2,2,0,0,1-1.42-.49,1.64,1.64,0,0,1-.52-1.26,1.69,1.69,0,0,1,.24-.89,1.55,1.55,0,0,1,.67-.59,5.28,5.28,0,0,1,1.26-.37,8.63,8.63,0,0,0,1.51-.38v-.15a.82.82,0,0,0-.23-.64,1.32,1.32,0,0,0-.84-.19,1.1,1.1,0,0,0-.66.16,1.13,1.13,0,0,0-.38.58Zm2.09,1.26a9.21,9.21,0,0,1-.95.24,2.87,2.87,0,0,0-.84.26.66.66,0,0,0-.3.55.77.77,0,0,0,.24.57.86.86,0,0,0,.62.24,1.35,1.35,0,0,0,.79-.28,1,1,0,0,0,.37-.52,3.13,3.13,0,0,0,0-.76V172Zm3,2.85v-8.13H140v8.13Zm6-6.58v-1.49h5.29v1.13a8.41,8.41,0,0,0-1.26,1.89,10.86,10.86,0,0,0-1,2.52,9.69,9.69,0,0,0-.35,2.45h-1.54a10.55,10.55,0,0,1,.69-3.44,11.55,11.55,0,0,1,1.75-3.14Zm7.65,2.19a1.75,1.75,0,0,1-1.15-1.68,2,2,0,0,1,.63-1.5,3,3,0,0,1,3.59,0,2,2,0,0,1,.64,1.5,1.78,1.78,0,0,1-.29,1,1.85,1.85,0,0,1-.83.68,2.18,2.18,0,0,1,1,.79,2.12,2.12,0,0,1,.35,1.26,2.52,2.52,0,0,1-.72,1.84,2.6,2.6,0,0,1-1.9.71,2.87,2.87,0,0,1-1.84-.58,2.28,2.28,0,0,1-.87-1.89,2.34,2.34,0,0,1,.33-1.26,2.12,2.12,0,0,1,1-.86Zm.33-1.56a1,1,0,0,0,.26.73,1.07,1.07,0,0,0,1.4,0,1,1,0,0,0-.69-1.7.92.92,0,0,0-1,1Zm-.16,3.43a1.45,1.45,0,0,0,.33,1,1.06,1.06,0,0,0,.82.37,1,1,0,0,0,.79-.35,1.46,1.46,0,0,0,.32-1,1.26,1.26,0,0,0-.32-.92,1.06,1.06,0,0,0-.81-.35,1,1,0,0,0-.84.4,1.47,1.47,0,0,0-.3.88Zm10.08-3.66-1.51.16a1.1,1.1,0,0,0-.29-.68.83.83,0,0,0-.6-.23,1,1,0,0,0-.83.44,3.78,3.78,0,0,0-.43,1.84,1.81,1.81,0,0,1,1.45-.69,2.21,2.21,0,0,1,1.66.74,2.7,2.7,0,0,1,.69,1.93,2.75,2.75,0,0,1-.73,2,2.66,2.66,0,0,1-3.76-.05l-.13-.15a4.94,4.94,0,0,1-.79-3.14,5,5,0,0,1,.83-3.23,2.66,2.66,0,0,1,2.14-1,2.27,2.27,0,0,1,1.54.52,2.45,2.45,0,0,1,.77,1.51ZM158.8,172a1.76,1.76,0,0,0,.35,1.17,1,1,0,0,0,.79.42.92.92,0,0,0,.72-.34,1.73,1.73,0,0,0,.29-1.11,1.79,1.79,0,0,0-.32-1.16,1,1,0,0,0-1.4-.14l-.14.14a1.54,1.54,0,0,0-.29,1Z" style="fill:#262424"/></g></g></svg>